<svg width="20" height="20" viewBox="0 0 20 20" fill="none" xmlns="http://www.w3.org/2000/svg">
<path opacity="0.4" d="M14 7.5H5.99996C3.33329 7.5 1.66663 9.16667 1.66663 11.8333V13.9917C1.66663 16.6667 3.33329 18.3333 5.99996 18.3333H13.9916C16.6583 18.3333 18.325 16.6667 18.325 14V11.8333C18.3333 9.16667 16.6666 7.5 14 7.5Z" fill="#035AC5"/>
<path d="M13.2332 4.64198L10.4416 1.85032C10.1999 1.60865 9.79991 1.60865 9.55824 1.85032L6.76658 4.64198C6.52491 4.88365 6.52491 5.28365 6.76658 5.52532C7.00824 5.76698 7.40824 5.76698 7.64991 5.52532L9.37491 3.80032V12.7087C9.37491 13.0503 9.65824 13.3337 9.99991 13.3337C10.3416 13.3337 10.6249 13.0503 10.6249 12.7087V3.80032L12.3499 5.52532C12.4749 5.65032 12.6332 5.70865 12.7916 5.70865C12.9499 5.70865 13.1082 5.65032 13.2332 5.52532C13.4832 5.28365 13.4832 4.89198 13.2332 4.64198Z" fill="#035AC5"/>
</svg>
