<svg width="20" height="20" viewBox="0 0 20 20" fill="none" xmlns="http://www.w3.org/2000/svg">
<path opacity="0.4" d="M9.16662 6.24996V13.75C9.16662 14.2083 8.79162 14.5833 8.33328 14.5833H6.24995C4.98328 14.5833 3.84162 14.0666 3.00828 13.2416C2.22495 12.45 1.71662 11.375 1.66662 10.1833C1.56662 7.56663 3.84995 5.41663 6.47495 5.41663H8.33328C8.79162 5.41663 9.16662 5.79163 9.16662 6.24996Z" fill="#035AC5"/>
<path opacity="0.4" d="M18.3333 9.81663C18.4417 12.4416 16.1583 14.5833 13.5333 14.5833H11.675C11.2167 14.5833 10.8417 14.2083 10.8417 13.75V6.24996C10.8417 5.79163 11.2167 5.41663 11.675 5.41663H13.7583C15.025 5.41663 16.1667 5.93329 17 6.75829C17.775 7.54996 18.2833 8.62496 18.3333 9.81663Z" fill="#035AC5"/>
<path d="M13.3333 10.625H6.66663C6.32496 10.625 6.04163 10.3417 6.04163 10C6.04163 9.65833 6.32496 9.375 6.66663 9.375H13.3333C13.675 9.375 13.9583 9.65833 13.9583 10C13.9583 10.3417 13.675 10.625 13.3333 10.625Z" fill="#035AC5"/>
</svg>
