<svg width="58" height="58" viewBox="0 0 58 58" fill="none" xmlns="http://www.w3.org/2000/svg">
<path d="M12.0834 33.8334C6.74258 33.8334 2.41675 38.1592 2.41675 43.5C2.41675 48.8409 6.74258 53.1667 12.0834 53.1667C17.4242 53.1667 21.7501 48.8409 21.7501 43.5C21.7501 38.1592 17.4242 33.8334 12.0834 33.8334ZM14.5001 42.7267C14.5001 44.2009 13.7026 45.6025 12.446 46.3517L10.6093 47.4634C10.3193 47.6326 10.0051 47.7292 9.69094 47.7292C9.08677 47.7292 8.48257 47.4151 8.14424 46.8592C7.63674 46.0134 7.90259 44.8775 8.77259 44.37L10.6093 43.2584C10.7785 43.1618 10.8993 42.9442 10.8993 42.7509V40.5034C10.8993 39.5126 11.7209 38.6909 12.7118 38.6909C13.7026 38.6909 14.5243 39.5126 14.5243 40.5034V42.7267H14.5001Z" fill="#035AC5"/>
<path opacity="0.4" d="M53.1666 21.75V36.25C53.1666 44.7083 48.3333 48.3333 41.0833 48.3333H20.4208C21.2666 46.9075 21.7499 45.2641 21.7499 43.5C21.7499 38.1591 17.4241 33.8333 12.0833 33.8333C9.18325 33.8333 6.59742 35.1141 4.83325 37.1199V21.75C4.83325 13.2916 9.66659 9.66663 16.9166 9.66663H41.0833C48.3333 9.66663 53.1666 13.2916 53.1666 21.75Z" fill="#035AC5"/>
<path d="M28.9999 35.0417C32.3366 35.0417 35.0416 32.3368 35.0416 29C35.0416 25.6633 32.3366 22.9584 28.9999 22.9584C25.6632 22.9584 22.9583 25.6633 22.9583 29C22.9583 32.3368 25.6632 35.0417 28.9999 35.0417Z" fill="#035AC5"/>
<path d="M44.7083 35.6458C43.7174 35.6458 42.8958 34.8241 42.8958 33.8333V24.1666C42.8958 23.1758 43.7174 22.3541 44.7083 22.3541C45.6991 22.3541 46.5208 23.1758 46.5208 24.1666V33.8333C46.5208 34.8241 45.6991 35.6458 44.7083 35.6458Z" fill="#035AC5"/>
</svg>
