<svg width="20" height="20" viewBox="0 0 20 20" fill="none" xmlns="http://www.w3.org/2000/svg">
<path opacity="0.4" d="M14.1666 17.0833H5.83329C3.33329 17.0833 1.66663 15.8333 1.66663 12.9166V7.08329C1.66663 4.16663 3.33329 2.91663 5.83329 2.91663H14.1666C16.6666 2.91663 18.3333 4.16663 18.3333 7.08329V12.9166C18.3333 15.8333 16.6666 17.0833 14.1666 17.0833Z" fill="#035AC5"/>
<path d="M9.99998 10.725C9.29998 10.725 8.59165 10.5083 8.04998 10.0666L5.44164 7.98331C5.17498 7.76664 5.12498 7.37497 5.34165 7.10831C5.55831 6.84164 5.94998 6.79164 6.21665 7.00831L8.82497 9.09164C9.45831 9.59998 10.5333 9.59998 11.1666 9.09164L13.775 7.00831C14.0416 6.79164 14.4416 6.83331 14.65 7.10831C14.8666 7.37497 14.825 7.77498 14.55 7.98331L11.9416 10.0666C11.4083 10.5083 10.7 10.725 9.99998 10.725Z" fill="#035AC5"/>
</svg>
