<svg width="100" height="100" viewBox="0 0 100 100" fill="none" xmlns="http://www.w3.org/2000/svg">
<path opacity="0.4" d="M50 91.6667C73.0118 91.6667 91.6666 73.0119 91.6666 50C91.6666 26.9882 73.0118 8.33337 50 8.33337C26.9881 8.33337 8.33331 26.9882 8.33331 50C8.33331 73.0119 26.9881 91.6667 50 91.6667Z" fill="#22C55E"/>
<path d="M44.0833 64.9167C43.25 64.9167 42.4583 64.5834 41.875 64L30.0833 52.2084C28.875 51 28.875 49 30.0833 47.7917C31.2916 46.5834 33.2916 46.5834 34.5 47.7917L44.0833 57.375L65.5 35.9584C66.7083 34.75 68.7083 34.75 69.9167 35.9584C71.125 37.1667 71.125 39.1667 69.9167 40.375L46.2916 64C45.7083 64.5834 44.9166 64.9167 44.0833 64.9167Z" fill="#22C55E"/>
</svg>
