<svg width="20" height="20" viewBox="0 0 20 20" fill="none" xmlns="http://www.w3.org/2000/svg">
<path opacity="0.58" d="M20 0H0V20H20V0Z" fill="none"/>
<path opacity="0.4" d="M5.78354 17.1916C7.02521 17.9166 8.46687 18.3333 10.0002 18.3333C14.6919 18.3333 18.5919 14.1916 18.3169 9.5083C18.0335 4.67497 13.6419 0.949968 8.58353 1.7833C5.1002 2.3583 2.30854 5.1833 1.76687 8.66664C1.4502 10.6833 1.86689 12.5916 2.77522 14.1666L2.03354 16.925C1.86688 17.55 2.44186 18.1166 3.05853 17.9416L5.78354 17.1916Z" fill="#035AC5"/>
<path d="M14.1667 12.6416C14.1667 12.7916 14.1334 12.95 14.0584 13.1C13.9834 13.25 13.8917 13.3917 13.7751 13.525C13.5667 13.75 13.3417 13.9166 13.0917 14.0166C12.8417 14.125 12.5667 14.175 12.275 14.175C11.85 14.175 11.3917 14.075 10.9167 13.8666C10.4334 13.6583 9.95838 13.3833 9.48338 13.0416C9.00004 12.6916 8.55003 12.3 8.1167 11.875C7.68337 11.4416 7.30006 10.9833 6.95006 10.5083C6.6084 10.0333 6.33336 9.55832 6.13336 9.08332C5.93336 8.60832 5.83337 8.14998 5.83337 7.71665C5.83337 7.43332 5.88337 7.15832 5.98337 6.90832C6.08337 6.64998 6.24172 6.41665 6.46672 6.20831C6.73338 5.94165 7.02503 5.81665 7.33336 5.81665C7.45003 5.81665 7.56673 5.84165 7.67506 5.89165C7.78339 5.94165 7.88336 6.01665 7.95836 6.12498L8.91672 7.49998C8.99172 7.60831 9.05006 7.69998 9.08339 7.79165C9.12506 7.88331 9.14168 7.96665 9.14168 8.04998C9.14168 8.14998 9.10836 8.24998 9.05003 8.34998C8.9917 8.44998 8.91672 8.54998 8.81672 8.64998L8.50005 8.98331C8.45005 9.03331 8.43337 9.08332 8.43337 9.14998C8.43337 9.18332 8.44172 9.21665 8.45005 9.24998C8.46672 9.28331 8.47503 9.30831 8.48337 9.33331C8.55837 9.47498 8.69173 9.64998 8.87506 9.86664C9.06673 10.0833 9.26671 10.3083 9.48338 10.525C9.70838 10.75 9.92503 10.95 10.15 11.1417C10.3667 11.325 10.5501 11.45 10.6917 11.525C10.7167 11.5333 10.7417 11.55 10.7667 11.5583C10.8 11.575 10.8334 11.575 10.875 11.575C10.95 11.575 11 11.55 11.05 11.5L11.3667 11.1833C11.4751 11.075 11.575 11 11.6667 10.95C11.7667 10.8916 11.8584 10.8583 11.9667 10.8583C12.05 10.8583 12.1334 10.875 12.225 10.9166C12.3167 10.9583 12.4167 11.0083 12.5167 11.0833L13.9 12.0667C14.0084 12.1417 14.0834 12.2333 14.1334 12.3333C14.1417 12.425 14.1667 12.525 14.1667 12.6416Z" fill="#035AC5"/>
</svg>
